STARTFONT 2.1
FONT -FontForge-Roboto Mono-Book-R-Normal--64-720-64-64-C-380-ISO10646-1
SIZE 72 64 64
FONTBOUNDINGBOX 34 52 1 -1
COMMENT "Generated by fontforge, http://fontforge.sourceforge.net"
COMMENT "Copyright 2015 The Roboto Mono Project Authors (https://github.com/googlefonts/robotomono)"
STARTPROPERTIES 37
FOUNDRY "FontForge"
FAMILY_NAME "Roboto Mono"
WEIGHT_NAME "Book"
SLANT "R"
SETWIDTH_NAME "Normal"
ADD_STYLE_NAME ""
PIXEL_SIZE 64
POINT_SIZE 720
RESOLUTION_X 64
RESOLUTION_Y 64
SPACING "C"
AVERAGE_WIDTH 380
CHARSET_REGISTRY "ISO10646"
CHARSET_ENCODING "1"
FONTNAME_REGISTRY ""
CHARSET_COLLECTIONS "ISO10646-1"
FONT_NAME "RobotoMono-Regular"
FACE_NAME "Roboto Mono Regular"
COPYRIGHT "Copyright 2015 The Roboto Mono Project Authors (https://github.com/googlefonts/robotomono)"
FONT_VERSION "3.000"
FONT_ASCENT 51
FONT_DESCENT 13
UNDERLINE_POSITION -6
UNDERLINE_THICKNESS 4
RAW_ASCENT 799
RAW_DESCENT 200
RELATIVE_WEIGHT 40
RELATIVE_SETWIDTH 50
SUPERSCRIPT_X 0
SUPERSCRIPT_Y 30
SUPERSCRIPT_SIZE 41
SUBSCRIPT_X 0
SUBSCRIPT_Y 8
SUBSCRIPT_SIZE 41
FIGURE_WIDTH 38
AVG_LOWERCASE_WIDTH 380
AVG_UPPERCASE_WIDTH 380
ENDPROPERTIES
CHARS 12
STARTCHAR zero
ENCODING 48
SWIDTH 600 0
DWIDTH 38 0
BBX 30 47 4 1
BITMAP
001FE000
00FFFC00
01FFFF00
03FFFF80
07FFFFC0
0FE01FE0
1FC007E0
1F8003F0
3F0003F0
3F0001F8
7E0001F8
7E0000F8
7E0000F8
7E0000FC
7E0000FC
7F0000FC
FFC000FC
FFE000FC
FFF000FC
FFFC00FC
FDFE00FC
FC7F00FC
FC3F80FC
FC1FE0FC
FC07F0FC
FC03F8FC
FC01FEFC
FC007FFC
FC003FFC
FC001FFC
7C0007FC
7C0003FC
7C0001FC
7C0000FC
7E0000F8
7E0001F8
7E0001F8
3F0001F8
3F0003F0
1F8003F0
1FC007E0
0FF01FE0
07FFFFC0
03FFFF80
01FFFE00
007FFC00
001FE000
ENDCHAR
STARTCHAR one
ENCODING 49
SWIDTH 600 0
DWIDTH 38 0
BBX 18 46 6 2
BITMAP
000FC0
000FC0
000FC0
000FC0
000FC0
000FC0
000FC0
000FC0
000FC0
000FC0
000FC0
000FC0
000FC0
000FC0
000FC0
000FC0
000FC0
000FC0
000FC0
000FC0
000FC0
000FC0
000FC0
000FC0
000FC0
000FC0
000FC0
000FC0
000FC0
000FC0
000FC0
000FC0
000FC0
000FC0
C00FC0
F80FC0
FF0FC0
FFCFC0
FFFFC0
7FFFC0
0FFFC0
01FFC0
007FC0
000FC0
0003C0
000040
ENDCHAR
STARTCHAR two
ENCODING 50
SWIDTH 600 0
DWIDTH 38 0
BBX 30 46 4 2
BITMAP
FFFFFFFC
FFFFFFFC
FFFFFFFC
FFFFFFFC
7FFFFFFC
3F000000
1F800000
1FC00000
0FE00000
07F00000
03F80000
01FC0000
00FE0000
007F0000
003F0000
001F8000
000FC000
000FE000
0007F000
0003F800
0001FC00
0000FE00
00007E00
00003F00
00001F80
00001FC0
00000FC0
000007E0
000007E0
000003E0
000003F0
000003F0
F80003F0
F80003F0
FC0003F0
FC0003F0
FC0003F0
7E0007F0
7E0007E0
3F000FE0
3FC03FC0
1FFFFF80
0FFFFF80
07FFFE00
01FFFC00
007FE000
ENDCHAR
STARTCHAR three
ENCODING 51
SWIDTH 600 0
DWIDTH 38 0
BBX 29 47 4 1
BITMAP
003FE000
01FFFC00
03FFFE00
0FFFFF00
1FFFFF80
1FC03FC0
3F800FE0
7F0007E0
7E0007E0
7E0003F0
FC0003F0
FC0003F0
FC0003F0
000003F0
000003F0
000003F0
000007E0
000007E0
00000FC0
00003FC0
0001FF80
007FFE00
007FFC00
007FFE00
007FFF80
0000FFC0
00001FE0
000007E0
000007F0
000003F0
000003F0
000001F8
000001F8
000001F8
FC0001F8
FC0001F8
FC0001F0
FC0003F0
7E0003F0
7F0007E0
3F800FE0
3FE03FC0
1FFFFF80
0FFFFF00
03FFFE00
00FFF800
001F8000
ENDCHAR
STARTCHAR four
ENCODING 52
SWIDTH 600 0
DWIDTH 38 0
BBX 33 46 2 2
BITMAP
000007E000
000007E000
000007E000
000007E000
000007E000
000007E000
000007E000
000007E000
000007E000
000007E000
000007E000
FFFFFFFF80
FFFFFFFF80
FFFFFFFF80
7FFFFFFF80
7E0007E000
3F0007E000
1F0007E000
1F8007E000
0F8007E000
07C007E000
07E007E000
03E007E000
03F007E000
01F807E000
00F807E000
00FC07E000
007E07E000
003E07E000
003F07E000
001F87E000
000F87E000
000FC7E000
0007E7E000
0003E7E000
0003F7E000
0001F7E000
0000FFE000
0000FFE000
00007FE000
00007FE000
00003FE000
00001FE000
00001FE000
00000FE000
000007E000
ENDCHAR
STARTCHAR five
ENCODING 53
SWIDTH 600 0
DWIDTH 38 0
BBX 28 46 6 2
BITMAP
003FE000
01FFF800
07FFFE00
0FFFFF00
1FFFFF80
3FC03FC0
3F000FE0
7E0007E0
7E0007E0
FC0003F0
FC0003F0
FC0003F0
F80003F0
000001F0
000001F0
000001F0
000001F0
000003F0
000003F0
000003F0
000007F0
000007E0
04000FE0
7F001FE0
3FC07FC0
3FFFFF80
3FFFFF80
3FFFFE00
3EFFFC00
3F3FF000
3F000000
3F000000
3F000000
1F000000
1F000000
1F000000
1F000000
1F000000
1F000000
1F800000
1FFFFFE0
1FFFFFE0
1FFFFFE0
0FFFFFE0
0FFFFFE0
0FFFFFE0
ENDCHAR
STARTCHAR six
ENCODING 54
SWIDTH 600 0
DWIDTH 38 0
BBX 29 46 4 2
BITMAP
001FE000
007FFC00
01FFFE00
03FFFF80
07FFFFC0
0FF03FC0
1FC00FE0
1F8007E0
3F8003F0
3F0003F0
7E0001F8
7E0001F8
7E0001F8
7E0001F8
7C0001F8
FC0001F8
FC0001F8
FC0001F8
FC0001F8
FC0001F8
FE0003F8
FE0003F0
FF0007F0
7F8007E0
7FE01FE0
7FFC7FC0
7DFFFF80
7CFFFF00
7E7FFE00
7E1FF800
3E000000
3E000000
3F000000
3F000000
1F800000
1FC00000
0FC00000
0FE00000
07F80000
03FE0000
01FFC000
00FFFE00
007FFE00
001FFE00
0007FE00
0000FE00
ENDCHAR
STARTCHAR seven
ENCODING 55
SWIDTH 600 0
DWIDTH 38 0
BBX 31 45 3 3
BITMAP
03F80000
01F80000
00FC0000
00FC0000
00FC0000
007E0000
007E0000
003F0000
003F0000
001F8000
001F8000
000FC000
000FC000
0007C000
0007E000
0003E000
0003F000
0001F000
0001F800
0001F800
0000FC00
0000FC00
00007C00
00007E00
00003E00
00003F00
00001F00
00001F80
00000F80
00000FC0
000007C0
000007C0
000007E0
000003E0
000003F0
000001F0
000001F8
000000F8
000000FC
0000007C
FFFFFFFC
FFFFFFFE
FFFFFFFE
FFFFFFFE
FFFFFFFE
ENDCHAR
STARTCHAR eight
ENCODING 56
SWIDTH 600 0
DWIDTH 38 0
BBX 29 47 5 1
BITMAP
001FE000
00FFFC00
03FFFE00
07FFFF80
0FFFFFC0
1FE03FC0
1FC00FE0
3F8007E0
3F0007F0
3F0003F0
7E0003F0
7E0003F0
7E0003F0
7E0003F0
7E0003F0
3F0003F0
3F0007E0
1F8007E0
1FC00FC0
0FE03FC0
07FFFF80
03FFFF00
00FFFC00
03FFFE00
07FFFF80
0FF03FC0
1FC00FE0
3F0007E0
3F0003F0
7E0003F0
7E0001F8
FC0001F8
FC0001F8
FC0001F8
FC0001F8
FC0001F8
7C0001F8
7E0001F8
7E0003F0
7F0007F0
3F800FF0
1FE03FE0
0FFFFFC0
07FFFF80
03FFFF00
00FFF800
000FC000
ENDCHAR
STARTCHAR nine
ENCODING 57
SWIDTH 600 0
DWIDTH 38 0
BBX 29 46 5 2
BITMAP
03F80000
03FF0000
03FFE000
03FFF000
03FFF800
001FFC00
0001FE00
00007F00
00003F80
00001F80
00000FC0
000007C0
000007E0
000003E0
000003E0
001F03E0
01FFE3F0
03FFF3F0
0FFFF9F0
1FFFFDF0
1FE07FF0
3F801FF0
3F000FF0
7F0007F0
7E0003F0
FE0003F0
FC0001F8
FC0001F8
FC0001F0
FC0001F0
FC0001F0
FC0001F0
FC0003F0
FC0003F0
FC0003F0
FC0003E0
7E0007E0
7E000FE0
3F000FC0
3F801FC0
1FC07F80
1FFFFF00
0FFFFE00
03FFFC00
01FFF800
007FC000
ENDCHAR
STARTCHAR M
ENCODING 77
SWIDTH 600 0
DWIDTH 38 0
BBX 31 51 3 0
BITMAP
FFFFFFFE
FFFFFFFE
FFFFFFFE
FFFFFFFE
FFFFFFFE
FFFFFFFE
FFFFFFFE
FFFFFFFE
FFFFFFFE
FFFFFFFE
FFFFFFFE
FFFFFFFE
FFFFFFFE
FFFFFFFE
FFFFFFFE
FFFFFFFE
FFFFFFFE
FFFFFFFE
FFFFFFFE
FFFFFFFE
FFFFFFFE
FFFFFFFE
FFFFFFFE
FFFFFFFE
FFFFFFFE
FFFFFFFE
FFFFFFFE
FFFFFFFE
FFFFFFFE
FFFFFFFE
FFFFFFFE
FFFFFFFE
FFFFFFFE
FFFFFFFE
FFFFFFFE
FFFFFFFE
FFFFFFFE
FFFFFFFE
FFFFFFFE
FFFFFFFE
FFFFFFFE
FFFFFFFE
FFFFFFFE
FFFFFFFE
FFFFFFFE
FFFFFFFE
FFFFFFFE
FFFFFFFE
FFFFFFFE
FFFFFFFE
FFFFFFFE
ENDCHAR
STARTCHAR m
ENCODING 109
SWIDTH 600 0
DWIDTH 38 0
BBX 30 48 1 -1
BITMAP
FFFFFFFC
FFFFFFFC
FFFFFFFC
FFFFFFFC
FFFFFFFC
FFFFFFFC
FFFFFFFC
FFFFFFFC
FFFFFFFC
FFFFFFFC
FFFFFFFC
FFFFFFFC
FFFFFFFC
FFFFFFFC
FFFFFFFC
FFFFFFFC
FFFFFFFC
FFFFFFFC
FFFFFFFC
FFFFFFFC
FFFFFFFC
FFFFFFFC
FFFFFFFC
FFFFFFFC
FFFFFFFC
FFFFFFFC
FFFFFFFC
FFFFFFFC
FFFFFFFC
FFFFFFFC
FFFFFFFC
FFFFFFFC
FFFFFFFC
FFFFFFFC
FFFFFFFC
FFFFFFFC
FFFFFFFC
FFFFFFFC
FFFFFFFC
FFFFFFFC
FFFFFFFC
FFFFFFFC
FFFFFFFC
FFFFFFFC
FFFFFFFC
FFFFFFFC
FFFFFFFC
01000000
ENDCHAR
ENDFONT
